<?xml version="1.0" standalone="no"?>
<!DOCTYPE svg PUBLIC "-//W3C//DTD SVG 20010904//EN"
 "http://www.w3.org/TR/2001/REC-SVG-20010904/DTD/svg10.dtd">
<svg version="1.0" xmlns="http://www.w3.org/2000/svg"
 width="729.000000pt" height="729.000000pt" viewBox="0 0 729.000000 729.000000"
 preserveAspectRatio="xMidYMid meet">
<metadata>
Created by potrace 1.14, written by Peter Selinger 2001-2017
</metadata>
<g transform="translate(0.000000,729.000000) scale(0.100000,-0.100000)"
fill="#000000" stroke="none">
<path d="M1660 6909 c-52 -4 -113 -13 -135 -19 -22 -5 -56 -12 -75 -15 -19 -2
-73 -14 -120 -25 -47 -12 -96 -24 -110 -27 -14 -3 -29 -9 -35 -13 -5 -3 -36
-15 -67 -25 -32 -11 -58 -23 -58 -28 0 -4 -4 -6 -9 -3 -5 3 -14 -1 -21 -9 -7
-8 -16 -15 -21 -15 -11 0 -128 -69 -164 -97 -47 -36 -105 -86 -127 -108 -38
-38 -178 -227 -178 -240 0 -3 -12 -24 -27 -48 -14 -23 -26 -44 -25 -47 3 -10
-9 -40 -17 -40 -3 0 -7 -8 -8 -17 -1 -10 -9 -45 -18 -78 -15 -55 -17 -147 -13
-1020 1 -528 3 -1070 3 -1205 l0 -245 -32 -3 c-29 -3 -33 0 -32 20 0 13 -2 62
-5 109 -7 147 -58 199 -191 199 -79 0 -115 -16 -146 -67 l-23 -38 3 -490 c2
-383 6 -497 16 -522 20 -48 103 -132 157 -159 l48 -24 3417 2 c3288 3 3420 4
3467 21 67 25 122 79 140 136 12 37 16 144 20 541 l5 495 -27 50 c-40 74 -58
79 -208 65 -69 -7 -127 -10 -130 -8 -3 3 -5 444 -5 979 1 536 -3 1012 -8 1059
-14 126 -50 225 -145 388 -20 35 -36 66 -36 69 0 3 -15 24 -33 47 -19 23 -38
48 -43 57 -9 17 -119 111 -164 141 -14 10 -43 30 -65 45 -22 16 -60 37 -85 47
-25 10 -63 27 -85 37 -52 24 -194 69 -217 69 -10 0 -44 6 -76 14 -207 52 -78
49 -2217 52 -1089 1 -2023 -2 -2075 -7z m2835 -923 l1090 -1 50 -24 c65 -32
153 -116 199 -190 71 -117 71 -108 74 -765 2 -563 1 -593 -18 -662 -49 -181
-180 -327 -347 -386 -57 -20 -76 -20 -833 -22 -426 -1 -1215 -2 -1754 -4 -538
-1 -981 0 -986 3 -4 2 -38 5 -76 7 -118 4 -227 59 -331 166 -62 64 -92 116
-130 220 l-27 77 -1 570 c0 626 0 629 63 754 28 56 145 191 166 191 6 0 27 10
46 23 19 13 55 29 80 36 25 8 50 15 55 17 6 2 366 1 800 -3 435 -3 1280 -6
1880 -7z m2422 -2338 c-2 -13 -4 -3 -4 22 0 25 2 35 4 23 2 -13 2 -33 0 -45z
m-6362 -7 c7 -12 -12 -24 -25 -16 -11 7 -4 25 10 25 5 0 11 -4 15 -9z"/>
<path d="M3325 5774 c-84 -20 -158 -69 -174 -116 -7 -19 -11 -122 -11 -262 0
-202 3 -236 19 -271 21 -46 72 -85 148 -111 45 -16 58 -17 100 -6 63 17 124
59 145 102 16 31 18 68 18 301 l0 266 -24 26 c-46 50 -157 86 -221 71z"/>
<path d="M3904 5590 c-22 -3 -54 -16 -72 -29 -57 -40 -62 -62 -62 -249 0 -168
0 -168 29 -213 31 -49 98 -89 148 -89 38 1 103 32 133 64 25 27 25 30 28 223
2 136 0 205 -9 225 -21 51 -104 80 -195 68z"/>
<path d="M1729 5371 c-84 -28 -123 -91 -124 -196 0 -85 32 -157 85 -193 l35
-23 528 5 c492 6 531 7 565 25 73 38 103 90 103 178 0 59 -28 128 -68 165 -21
20 -40 24 -126 30 -168 11 -970 19 -998 9z"/>
<path d="M4427 5357 c-43 -14 -117 -82 -117 -108 0 -10 -4 -20 -9 -23 -35 -22
-11 -153 36 -198 57 -54 66 -56 513 -63 365 -7 417 -6 428 7 9 12 12 60 10
184 l-3 168 -40 7 c-38 6 -405 25 -660 33 -74 3 -135 0 -158 -7z"/>
<path d="M5319 5303 c-6 -86 5 -319 15 -326 6 -4 54 -5 106 -2 89 5 97 8 123
36 15 16 27 35 27 41 0 7 -13 -3 -30 -22 -25 -29 -31 -33 -40 -20 -5 8 -10 22
-10 30 0 13 2 13 9 1 14 -22 41 48 29 72 -12 23 19 58 32 36 14 -22 24 -1 12
25 -12 26 -45 69 -74 95 -51 45 -197 70 -199 34z m216 -73 c3 -11 11 -20 16
-20 5 0 9 -7 9 -17 0 -15 -2 -15 -19 1 -21 19 -34 56 -21 56 5 0 12 -9 15 -20z
m-45 -230 c0 -5 -7 -10 -15 -10 -8 0 -15 5 -15 10 0 6 7 10 15 10 8 0 15 -4
15 -10z"/>
<path d="M2164 4770 c-521 -6 -479 1 -531 -87 -49 -84 -39 -198 24 -274 55
-65 33 -62 628 -60 390 2 547 6 565 14 13 7 38 34 54 61 25 39 30 58 28 98 -4
95 -57 205 -111 232 -38 19 -146 22 -657 16z"/>
<path d="M4346 4620 c-35 -37 -41 -81 -18 -132 25 -55 56 -83 109 -97 23 -7
178 -14 360 -17 175 -2 374 -6 443 -8 69 -1 169 0 224 4 97 6 99 6 127 40 19
24 29 46 29 70 0 42 -50 134 -83 152 -17 10 -149 13 -595 13 l-573 0 -23 -25z"/>
<path d="M1085 2310 c-446 -6 -417 -1 -519 -81 -86 -68 -117 -118 -139 -222
-17 -83 -19 -133 -18 -522 0 -236 5 -523 11 -637 l10 -208 39 -77 c39 -77 97
-143 171 -194 l35 -24 550 0 c627 0 583 -6 656 90 74 98 72 82 70 919 l-3 739
-25 53 c-35 74 -98 140 -148 152 -56 15 -225 18 -690 12z"/>
<path d="M2586 2300 c-28 -5 -61 -18 -75 -30 -14 -11 -33 -23 -43 -26 -9 -3
-28 -33 -42 -66 l-26 -59 0 -722 c0 -872 -3 -846 97 -943 35 -33 63 -57 63
-52 0 4 11 8 25 8 14 0 25 -4 25 -10 0 -5 -8 -10 -17 -10 -12 0 -8 -6 12 -18
33 -18 163 -24 600 -26 182 -1 214 1 242 17 48 26 81 63 116 130 l32 61 0 760
c0 728 -1 763 -19 801 -32 67 -95 133 -155 162 l-56 28 -365 2 c-201 0 -387
-3 -414 -7z"/>
<path d="M4208 2281 c-20 -10 -49 -28 -64 -40 -42 -33 -94 -121 -95 -161 -1
-19 0 -343 0 -720 1 -377 1 -724 1 -771 l0 -86 46 -59 c25 -32 56 -64 67 -71
29 -16 712 -18 754 -2 36 13 76 52 115 109 22 33 33 63 40 115 13 106 18 734
8 1141 -7 313 -10 366 -26 395 -33 64 -77 109 -137 139 l-60 30 -306 0 c-277
-1 -309 -3 -343 -19z"/>
<path d="M5580 2245 l-55 -56 -3 -839 -2 -840 24 -48 c13 -26 37 -59 53 -74
l29 -28 552 -1 552 -1 37 32 c21 18 50 53 66 77 33 52 81 172 92 228 4 22 7
315 6 650 -1 605 -1 611 -23 675 -31 91 -78 166 -138 225 l-51 50 -542 3 -542
2 -55 -55z"/>
</g>
</svg>
